<mxfile host="65bd71144e">
    <diagram name="第 1 页" id="B2rXs8vlxX8RumINF5JZ">
        <mxGraphModel dx="688" dy="563" grid="1" gridSize="10" guides="1" tooltips="1" connect="1" arrows="1" fold="1" page="1" pageScale="1" pageWidth="1100" pageHeight="850" math="1" shadow="0">
            <root>
                <mxCell id="0"/>
                <mxCell id="1" parent="0"/>
                <mxCell id="NFMgAaU_2-pYfXDWPUxV-1" value="" style="rounded=0;whiteSpace=wrap;html=1;dashed=1;fillColor=#dae8fc;strokeColor=#6c8ebf;fontSize=14;fontStyle=1" parent="1" vertex="1">
                    <mxGeometry x="140" y="100" width="590" height="300" as="geometry"/>
                </mxCell>
                <mxCell id="NFMgAaU_2-pYfXDWPUxV-2" value="" style="rounded=0;whiteSpace=wrap;html=1;fontSize=14;fontStyle=1" parent="1" vertex="1">
                    <mxGeometry x="150" y="110" width="130" height="280" as="geometry"/>
                </mxCell>
                <mxCell id="NFMgAaU_2-pYfXDWPUxV-37" style="edgeStyle=orthogonalEdgeStyle;rounded=0;orthogonalLoop=1;jettySize=auto;html=1;exitX=1;exitY=0.25;exitDx=0;exitDy=0;entryX=0.75;entryY=0;entryDx=0;entryDy=0;startArrow=classic;startFill=1;fontSize=14;fontStyle=1" parent="1" source="NFMgAaU_2-pYfXDWPUxV-3" target="NFMgAaU_2-pYfXDWPUxV-5" edge="1">
                    <mxGeometry relative="1" as="geometry"/>
                </mxCell>
                <mxCell id="NFMgAaU_2-pYfXDWPUxV-3" value="数据寄存器" style="rounded=0;whiteSpace=wrap;html=1;fillColor=#d5e8d4;strokeColor=#82b366;fontSize=14;fontStyle=1" parent="1" vertex="1">
                    <mxGeometry x="160" y="120" width="110" height="40" as="geometry"/>
                </mxCell>
                <mxCell id="NFMgAaU_2-pYfXDWPUxV-4" value="控制/状态&lt;br style=&quot;font-size: 14px;&quot;&gt;寄存器" style="rounded=0;whiteSpace=wrap;html=1;fillColor=#d5e8d4;strokeColor=#82b366;fontSize=14;fontStyle=1" parent="1" vertex="1">
                    <mxGeometry x="160" y="180" width="110" height="40" as="geometry"/>
                </mxCell>
                <mxCell id="NFMgAaU_2-pYfXDWPUxV-38" style="edgeStyle=orthogonalEdgeStyle;rounded=0;orthogonalLoop=1;jettySize=auto;html=1;exitX=0.25;exitY=0;exitDx=0;exitDy=0;entryX=1;entryY=0.25;entryDx=0;entryDy=0;fontSize=14;fontStyle=1" parent="1" source="NFMgAaU_2-pYfXDWPUxV-5" target="NFMgAaU_2-pYfXDWPUxV-4" edge="1">
                    <mxGeometry relative="1" as="geometry"/>
                </mxCell>
                <mxCell id="NFMgAaU_2-pYfXDWPUxV-5" value="IO逻辑" style="whiteSpace=wrap;html=1;aspect=fixed;fillColor=#fff2cc;strokeColor=#d6b656;fontSize=14;fontStyle=1" parent="1" vertex="1">
                    <mxGeometry x="400" y="290" width="80" height="80" as="geometry"/>
                </mxCell>
                <mxCell id="NFMgAaU_2-pYfXDWPUxV-17" style="edgeStyle=orthogonalEdgeStyle;rounded=0;orthogonalLoop=1;jettySize=auto;html=1;exitX=1.006;exitY=0.815;exitDx=0;exitDy=0;exitPerimeter=0;fontSize=14;fontStyle=1" parent="1" source="NFMgAaU_2-pYfXDWPUxV-6" target="NFMgAaU_2-pYfXDWPUxV-13" edge="1">
                    <mxGeometry relative="1" as="geometry">
                        <Array as="points"/>
                    </mxGeometry>
                </mxCell>
                <mxCell id="NFMgAaU_2-pYfXDWPUxV-44" style="edgeStyle=orthogonalEdgeStyle;rounded=0;orthogonalLoop=1;jettySize=auto;html=1;exitX=0;exitY=0.25;exitDx=0;exitDy=0;entryX=1;entryY=0.25;entryDx=0;entryDy=0;startArrow=classic;startFill=1;fontSize=14;fontStyle=1" parent="1" source="NFMgAaU_2-pYfXDWPUxV-6" target="NFMgAaU_2-pYfXDWPUxV-5" edge="1">
                    <mxGeometry relative="1" as="geometry"/>
                </mxCell>
                <mxCell id="NFMgAaU_2-pYfXDWPUxV-6" value="控制器与设备接口（1）" style="whiteSpace=wrap;html=1;aspect=fixed;fillColor=#f8cecc;strokeColor=#b85450;fontSize=14;fontStyle=1" parent="1" vertex="1">
                    <mxGeometry x="590" y="120" width="80" height="80" as="geometry"/>
                </mxCell>
                <mxCell id="NFMgAaU_2-pYfXDWPUxV-7" value="控制器与设备接口（2）" style="whiteSpace=wrap;html=1;aspect=fixed;fillColor=#f8cecc;strokeColor=#b85450;fontSize=14;fontStyle=1" parent="1" vertex="1">
                    <mxGeometry x="590" y="210" width="80" height="80" as="geometry"/>
                </mxCell>
                <mxCell id="NFMgAaU_2-pYfXDWPUxV-46" style="edgeStyle=orthogonalEdgeStyle;rounded=0;orthogonalLoop=1;jettySize=auto;html=1;exitX=0;exitY=0.75;exitDx=0;exitDy=0;entryX=1;entryY=0.75;entryDx=0;entryDy=0;fontSize=14;fontStyle=1" parent="1" source="NFMgAaU_2-pYfXDWPUxV-8" target="NFMgAaU_2-pYfXDWPUxV-5" edge="1">
                    <mxGeometry relative="1" as="geometry"/>
                </mxCell>
                <mxCell id="NFMgAaU_2-pYfXDWPUxV-8" value="控制器与设备接口（3）" style="whiteSpace=wrap;html=1;aspect=fixed;fillColor=#f8cecc;strokeColor=#b85450;fontSize=14;fontStyle=1" parent="1" vertex="1">
                    <mxGeometry x="590" y="300" width="80" height="80" as="geometry"/>
                </mxCell>
                <mxCell id="NFMgAaU_2-pYfXDWPUxV-9" value="控制器与设备接口" style="text;strokeColor=none;align=center;fillColor=none;html=1;verticalAlign=middle;whiteSpace=wrap;rounded=0;fontSize=14;fontStyle=1" parent="1" vertex="1">
                    <mxGeometry x="570" y="60" width="120" height="30" as="geometry"/>
                </mxCell>
                <mxCell id="NFMgAaU_2-pYfXDWPUxV-10" value="CPU与控制器接口" style="text;strokeColor=none;align=center;fillColor=none;html=1;verticalAlign=middle;whiteSpace=wrap;rounded=0;fontSize=14;fontStyle=1" parent="1" vertex="1">
                    <mxGeometry x="155" y="50" width="120" height="30" as="geometry"/>
                </mxCell>
                <mxCell id="NFMgAaU_2-pYfXDWPUxV-14" value="" style="edgeStyle=orthogonalEdgeStyle;rounded=0;orthogonalLoop=1;jettySize=auto;html=1;entryX=0.997;entryY=0.19;entryDx=0;entryDy=0;entryPerimeter=0;fontSize=14;fontStyle=1" parent="1" source="NFMgAaU_2-pYfXDWPUxV-11" target="NFMgAaU_2-pYfXDWPUxV-6" edge="1">
                    <mxGeometry relative="1" as="geometry"/>
                </mxCell>
                <mxCell id="NFMgAaU_2-pYfXDWPUxV-11" value="数据" style="text;strokeColor=none;align=center;fillColor=none;html=1;verticalAlign=middle;whiteSpace=wrap;rounded=0;fontSize=14;fontStyle=1" parent="1" vertex="1">
                    <mxGeometry x="740" y="120" width="60" height="30" as="geometry"/>
                </mxCell>
                <mxCell id="NFMgAaU_2-pYfXDWPUxV-15" value="" style="edgeStyle=orthogonalEdgeStyle;rounded=0;orthogonalLoop=1;jettySize=auto;html=1;fontSize=14;fontStyle=1" parent="1" source="NFMgAaU_2-pYfXDWPUxV-12" target="NFMgAaU_2-pYfXDWPUxV-6" edge="1">
                    <mxGeometry relative="1" as="geometry"/>
                </mxCell>
                <mxCell id="NFMgAaU_2-pYfXDWPUxV-12" value="状态" style="text;strokeColor=none;align=center;fillColor=none;html=1;verticalAlign=middle;whiteSpace=wrap;rounded=0;fontSize=14;fontStyle=1" parent="1" vertex="1">
                    <mxGeometry x="740" y="145" width="60" height="30" as="geometry"/>
                </mxCell>
                <mxCell id="NFMgAaU_2-pYfXDWPUxV-13" value="控制" style="text;strokeColor=none;align=center;fillColor=none;html=1;verticalAlign=middle;whiteSpace=wrap;rounded=0;fontSize=14;fontStyle=1" parent="1" vertex="1">
                    <mxGeometry x="740" y="170" width="60" height="30" as="geometry"/>
                </mxCell>
                <mxCell id="NFMgAaU_2-pYfXDWPUxV-25" style="edgeStyle=orthogonalEdgeStyle;rounded=0;orthogonalLoop=1;jettySize=auto;html=1;exitX=1.006;exitY=0.815;exitDx=0;exitDy=0;exitPerimeter=0;fontSize=14;fontStyle=1" parent="1" target="NFMgAaU_2-pYfXDWPUxV-30" edge="1">
                    <mxGeometry relative="1" as="geometry">
                        <mxPoint x="670" y="275" as="sourcePoint"/>
                        <Array as="points"/>
                    </mxGeometry>
                </mxCell>
                <mxCell id="NFMgAaU_2-pYfXDWPUxV-26" value="" style="edgeStyle=orthogonalEdgeStyle;rounded=0;orthogonalLoop=1;jettySize=auto;html=1;entryX=0.997;entryY=0.19;entryDx=0;entryDy=0;entryPerimeter=0;fontSize=14;fontStyle=1" parent="1" source="NFMgAaU_2-pYfXDWPUxV-27" edge="1">
                    <mxGeometry relative="1" as="geometry">
                        <mxPoint x="670" y="225" as="targetPoint"/>
                    </mxGeometry>
                </mxCell>
                <mxCell id="NFMgAaU_2-pYfXDWPUxV-27" value="数据" style="text;strokeColor=none;align=center;fillColor=none;html=1;verticalAlign=middle;whiteSpace=wrap;rounded=0;fontSize=14;fontStyle=1" parent="1" vertex="1">
                    <mxGeometry x="740" y="210" width="60" height="30" as="geometry"/>
                </mxCell>
                <mxCell id="NFMgAaU_2-pYfXDWPUxV-28" value="" style="edgeStyle=orthogonalEdgeStyle;rounded=0;orthogonalLoop=1;jettySize=auto;html=1;fontSize=14;fontStyle=1" parent="1" source="NFMgAaU_2-pYfXDWPUxV-29" edge="1">
                    <mxGeometry relative="1" as="geometry">
                        <mxPoint x="670" y="250" as="targetPoint"/>
                    </mxGeometry>
                </mxCell>
                <mxCell id="NFMgAaU_2-pYfXDWPUxV-29" value="状态" style="text;strokeColor=none;align=center;fillColor=none;html=1;verticalAlign=middle;whiteSpace=wrap;rounded=0;fontSize=14;fontStyle=1" parent="1" vertex="1">
                    <mxGeometry x="740" y="235" width="60" height="30" as="geometry"/>
                </mxCell>
                <mxCell id="NFMgAaU_2-pYfXDWPUxV-30" value="控制" style="text;strokeColor=none;align=center;fillColor=none;html=1;verticalAlign=middle;whiteSpace=wrap;rounded=0;fontSize=14;fontStyle=1" parent="1" vertex="1">
                    <mxGeometry x="740" y="260" width="60" height="30" as="geometry"/>
                </mxCell>
                <mxCell id="NFMgAaU_2-pYfXDWPUxV-31" style="edgeStyle=orthogonalEdgeStyle;rounded=0;orthogonalLoop=1;jettySize=auto;html=1;exitX=1.006;exitY=0.815;exitDx=0;exitDy=0;exitPerimeter=0;fontSize=14;fontStyle=1" parent="1" target="NFMgAaU_2-pYfXDWPUxV-36" edge="1">
                    <mxGeometry relative="1" as="geometry">
                        <mxPoint x="670" y="365" as="sourcePoint"/>
                        <Array as="points"/>
                    </mxGeometry>
                </mxCell>
                <mxCell id="NFMgAaU_2-pYfXDWPUxV-32" value="" style="edgeStyle=orthogonalEdgeStyle;rounded=0;orthogonalLoop=1;jettySize=auto;html=1;entryX=0.997;entryY=0.19;entryDx=0;entryDy=0;entryPerimeter=0;fontSize=14;fontStyle=1" parent="1" source="NFMgAaU_2-pYfXDWPUxV-33" edge="1">
                    <mxGeometry relative="1" as="geometry">
                        <mxPoint x="670" y="315" as="targetPoint"/>
                    </mxGeometry>
                </mxCell>
                <mxCell id="NFMgAaU_2-pYfXDWPUxV-33" value="数据" style="text;strokeColor=none;align=center;fillColor=none;html=1;verticalAlign=middle;whiteSpace=wrap;rounded=0;fontSize=14;fontStyle=1" parent="1" vertex="1">
                    <mxGeometry x="740" y="300" width="60" height="30" as="geometry"/>
                </mxCell>
                <mxCell id="NFMgAaU_2-pYfXDWPUxV-34" value="" style="edgeStyle=orthogonalEdgeStyle;rounded=0;orthogonalLoop=1;jettySize=auto;html=1;fontSize=14;fontStyle=1" parent="1" source="NFMgAaU_2-pYfXDWPUxV-35" edge="1">
                    <mxGeometry relative="1" as="geometry">
                        <mxPoint x="670" y="340" as="targetPoint"/>
                    </mxGeometry>
                </mxCell>
                <mxCell id="NFMgAaU_2-pYfXDWPUxV-35" value="状态" style="text;strokeColor=none;align=center;fillColor=none;html=1;verticalAlign=middle;whiteSpace=wrap;rounded=0;fontSize=14;fontStyle=1" parent="1" vertex="1">
                    <mxGeometry x="740" y="325" width="60" height="30" as="geometry"/>
                </mxCell>
                <mxCell id="NFMgAaU_2-pYfXDWPUxV-36" value="控制" style="text;strokeColor=none;align=center;fillColor=none;html=1;verticalAlign=middle;whiteSpace=wrap;rounded=0;fontSize=14;fontStyle=1" parent="1" vertex="1">
                    <mxGeometry x="740" y="350" width="60" height="30" as="geometry"/>
                </mxCell>
                <mxCell id="NFMgAaU_2-pYfXDWPUxV-41" style="edgeStyle=orthogonalEdgeStyle;rounded=0;orthogonalLoop=1;jettySize=auto;html=1;exitX=1;exitY=0.5;exitDx=0;exitDy=0;entryX=0.006;entryY=0.303;entryDx=0;entryDy=0;entryPerimeter=0;fontSize=14;fontStyle=1" parent="1" source="NFMgAaU_2-pYfXDWPUxV-39" target="NFMgAaU_2-pYfXDWPUxV-5" edge="1">
                    <mxGeometry relative="1" as="geometry"/>
                </mxCell>
                <mxCell id="NFMgAaU_2-pYfXDWPUxV-39" value="地址线" style="text;strokeColor=none;align=center;fillColor=none;html=1;verticalAlign=middle;whiteSpace=wrap;rounded=0;fontSize=14;fontStyle=1" parent="1" vertex="1">
                    <mxGeometry x="30" y="300" width="60" height="30" as="geometry"/>
                </mxCell>
                <mxCell id="NFMgAaU_2-pYfXDWPUxV-43" style="edgeStyle=orthogonalEdgeStyle;rounded=0;orthogonalLoop=1;jettySize=auto;html=1;exitX=1;exitY=0.5;exitDx=0;exitDy=0;entryX=0.011;entryY=0.823;entryDx=0;entryDy=0;entryPerimeter=0;fontSize=14;fontStyle=1" parent="1" source="NFMgAaU_2-pYfXDWPUxV-40" target="NFMgAaU_2-pYfXDWPUxV-5" edge="1">
                    <mxGeometry relative="1" as="geometry"/>
                </mxCell>
                <mxCell id="NFMgAaU_2-pYfXDWPUxV-40" value="控制线" style="text;strokeColor=none;align=center;fillColor=none;html=1;verticalAlign=middle;whiteSpace=wrap;rounded=0;fontSize=14;fontStyle=1" parent="1" vertex="1">
                    <mxGeometry x="30" y="340" width="60" height="30" as="geometry"/>
                </mxCell>
                <mxCell id="NFMgAaU_2-pYfXDWPUxV-47" value="设备管理器结构图" style="text;strokeColor=none;align=center;fillColor=none;html=1;verticalAlign=middle;whiteSpace=wrap;rounded=0;fontSize=14;fontStyle=1" parent="1" vertex="1">
                    <mxGeometry x="380" y="30" width="120" height="50" as="geometry"/>
                </mxCell>
                <mxCell id="NFMgAaU_2-pYfXDWPUxV-208" value="" style="endArrow=block;startArrow=block;endFill=1;startFill=1;html=1;rounded=1;strokeWidth=4;fontSize=14;fontStyle=1;fillColor=#0050ef;strokeColor=#001DBC;" parent="1" edge="1">
                    <mxGeometry width="160" relative="1" as="geometry">
                        <mxPoint x="30" y="530" as="sourcePoint"/>
                        <mxPoint x="510" y="530" as="targetPoint"/>
                    </mxGeometry>
                </mxCell>
                <mxCell id="NFMgAaU_2-pYfXDWPUxV-210" style="edgeStyle=orthogonalEdgeStyle;rounded=0;orthogonalLoop=1;jettySize=auto;html=1;exitX=0.5;exitY=0;exitDx=0;exitDy=0;startArrow=classic;startFill=1;strokeWidth=3;fontSize=14;fontStyle=1" parent="1" source="NFMgAaU_2-pYfXDWPUxV-209" edge="1">
                    <mxGeometry relative="1" as="geometry">
                        <mxPoint x="75" y="530" as="targetPoint"/>
                    </mxGeometry>
                </mxCell>
                <mxCell id="NFMgAaU_2-pYfXDWPUxV-209" value="CPU" style="rounded=0;whiteSpace=wrap;html=1;strokeWidth=3;fontSize=14;fontStyle=1" parent="1" vertex="1">
                    <mxGeometry x="50" y="590" width="50" height="90" as="geometry"/>
                </mxCell>
                <mxCell id="NFMgAaU_2-pYfXDWPUxV-211" style="edgeStyle=orthogonalEdgeStyle;rounded=0;orthogonalLoop=1;jettySize=auto;html=1;exitX=0.5;exitY=0;exitDx=0;exitDy=0;startArrow=classic;startFill=1;strokeWidth=3;fontSize=14;fontStyle=1" parent="1" source="NFMgAaU_2-pYfXDWPUxV-212" edge="1">
                    <mxGeometry relative="1" as="geometry">
                        <mxPoint x="145" y="530" as="targetPoint"/>
                    </mxGeometry>
                </mxCell>
                <mxCell id="NFMgAaU_2-pYfXDWPUxV-212" value="内存" style="rounded=0;whiteSpace=wrap;html=1;strokeWidth=3;fontSize=14;fontStyle=1" parent="1" vertex="1">
                    <mxGeometry x="120" y="590" width="50" height="90" as="geometry"/>
                </mxCell>
                <mxCell id="NFMgAaU_2-pYfXDWPUxV-213" style="edgeStyle=orthogonalEdgeStyle;rounded=0;orthogonalLoop=1;jettySize=auto;html=1;exitX=0.5;exitY=0;exitDx=0;exitDy=0;startArrow=classic;startFill=1;strokeWidth=3;fontSize=14;fontStyle=1" parent="1" source="NFMgAaU_2-pYfXDWPUxV-214" edge="1">
                    <mxGeometry relative="1" as="geometry">
                        <mxPoint x="275" y="530" as="targetPoint"/>
                    </mxGeometry>
                </mxCell>
                <mxCell id="NFMgAaU_2-pYfXDWPUxV-214" value="设备控制器" style="rounded=0;whiteSpace=wrap;html=1;strokeWidth=3;fontSize=14;fontStyle=1" parent="1" vertex="1">
                    <mxGeometry x="250" y="590" width="50" height="90" as="geometry"/>
                </mxCell>
                <mxCell id="NFMgAaU_2-pYfXDWPUxV-215" style="edgeStyle=orthogonalEdgeStyle;rounded=0;orthogonalLoop=1;jettySize=auto;html=1;exitX=0.5;exitY=0;exitDx=0;exitDy=0;startArrow=classic;startFill=1;strokeWidth=3;fontSize=14;fontStyle=1" parent="1" source="NFMgAaU_2-pYfXDWPUxV-216" edge="1">
                    <mxGeometry relative="1" as="geometry">
                        <mxPoint x="405" y="530" as="targetPoint"/>
                    </mxGeometry>
                </mxCell>
                <mxCell id="NFMgAaU_2-pYfXDWPUxV-216" value="设备控制器" style="rounded=0;whiteSpace=wrap;html=1;strokeWidth=3;fontSize=14;fontStyle=1" parent="1" vertex="1">
                    <mxGeometry x="380" y="590" width="50" height="90" as="geometry"/>
                </mxCell>
                <mxCell id="NFMgAaU_2-pYfXDWPUxV-219" style="edgeStyle=orthogonalEdgeStyle;rounded=0;orthogonalLoop=1;jettySize=auto;html=1;exitX=0.5;exitY=0;exitDx=0;exitDy=0;entryX=0.5;entryY=1;entryDx=0;entryDy=0;startArrow=classic;startFill=1;strokeWidth=3;fontSize=14;fontStyle=1" parent="1" source="NFMgAaU_2-pYfXDWPUxV-217" target="NFMgAaU_2-pYfXDWPUxV-214" edge="1">
                    <mxGeometry relative="1" as="geometry">
                        <mxPoint x="255" y="680" as="targetPoint"/>
                    </mxGeometry>
                </mxCell>
                <mxCell id="NFMgAaU_2-pYfXDWPUxV-217" value="磁盘" style="rounded=0;whiteSpace=wrap;html=1;strokeWidth=3;fontSize=14;fontStyle=1" parent="1" vertex="1">
                    <mxGeometry x="210" y="760" width="50" height="90" as="geometry"/>
                </mxCell>
                <mxCell id="NFMgAaU_2-pYfXDWPUxV-221" value="单总线结构" style="text;strokeColor=none;align=center;fillColor=none;html=1;verticalAlign=middle;whiteSpace=wrap;rounded=0;strokeWidth=3;fontSize=14;fontStyle=1" parent="1" vertex="1">
                    <mxGeometry x="230" y="480" width="140" height="30" as="geometry"/>
                </mxCell>
                <mxCell id="NFMgAaU_2-pYfXDWPUxV-222" value="" style="endArrow=block;startArrow=block;endFill=1;startFill=1;html=1;rounded=1;strokeWidth=4;fontSize=14;fontStyle=1;fillColor=#0050ef;strokeColor=#001DBC;" parent="1" edge="1">
                    <mxGeometry width="160" relative="1" as="geometry">
                        <mxPoint x="560" y="530" as="sourcePoint"/>
                        <mxPoint x="1040" y="530" as="targetPoint"/>
                    </mxGeometry>
                </mxCell>
                <mxCell id="NFMgAaU_2-pYfXDWPUxV-223" style="edgeStyle=orthogonalEdgeStyle;rounded=0;orthogonalLoop=1;jettySize=auto;html=1;exitX=0.5;exitY=0;exitDx=0;exitDy=0;startArrow=classic;startFill=1;strokeWidth=3;fontSize=14;fontStyle=1" parent="1" source="NFMgAaU_2-pYfXDWPUxV-224" edge="1">
                    <mxGeometry relative="1" as="geometry">
                        <mxPoint x="605" y="530" as="targetPoint"/>
                    </mxGeometry>
                </mxCell>
                <mxCell id="NFMgAaU_2-pYfXDWPUxV-224" value="CPU" style="rounded=0;whiteSpace=wrap;html=1;strokeWidth=3;fontSize=14;fontStyle=1" parent="1" vertex="1">
                    <mxGeometry x="580" y="590" width="50" height="90" as="geometry"/>
                </mxCell>
                <mxCell id="NFMgAaU_2-pYfXDWPUxV-225" style="edgeStyle=orthogonalEdgeStyle;rounded=0;orthogonalLoop=1;jettySize=auto;html=1;exitX=0.5;exitY=0;exitDx=0;exitDy=0;startArrow=classic;startFill=1;strokeWidth=3;fontSize=14;fontStyle=1" parent="1" source="NFMgAaU_2-pYfXDWPUxV-226" edge="1">
                    <mxGeometry relative="1" as="geometry">
                        <mxPoint x="675" y="530" as="targetPoint"/>
                    </mxGeometry>
                </mxCell>
                <mxCell id="NFMgAaU_2-pYfXDWPUxV-226" value="内存" style="rounded=0;whiteSpace=wrap;html=1;strokeWidth=3;fontSize=14;fontStyle=1" parent="1" vertex="1">
                    <mxGeometry x="650" y="590" width="50" height="90" as="geometry"/>
                </mxCell>
                <mxCell id="NFMgAaU_2-pYfXDWPUxV-227" style="edgeStyle=orthogonalEdgeStyle;rounded=0;orthogonalLoop=1;jettySize=auto;html=1;exitX=0.5;exitY=0;exitDx=0;exitDy=0;startArrow=classic;startFill=1;strokeWidth=3;fontSize=14;fontStyle=1" parent="1" source="NFMgAaU_2-pYfXDWPUxV-228" edge="1">
                    <mxGeometry relative="1" as="geometry">
                        <mxPoint x="805" y="530" as="targetPoint"/>
                    </mxGeometry>
                </mxCell>
                <mxCell id="NFMgAaU_2-pYfXDWPUxV-251" style="edgeStyle=orthogonalEdgeStyle;rounded=0;orthogonalLoop=1;jettySize=auto;html=1;exitX=0.5;exitY=1;exitDx=0;exitDy=0;strokeWidth=3;startArrow=classic;startFill=1;" parent="1" source="NFMgAaU_2-pYfXDWPUxV-228" edge="1">
                    <mxGeometry relative="1" as="geometry">
                        <mxPoint x="805" y="760" as="targetPoint"/>
                    </mxGeometry>
                </mxCell>
                <mxCell id="NFMgAaU_2-pYfXDWPUxV-228" value="通道" style="rounded=0;whiteSpace=wrap;html=1;strokeWidth=3;fontSize=14;fontStyle=1;fillColor=#6d8764;fontColor=#ffffff;strokeColor=#3A5431;" parent="1" vertex="1">
                    <mxGeometry x="780" y="590" width="50" height="90" as="geometry"/>
                </mxCell>
                <mxCell id="NFMgAaU_2-pYfXDWPUxV-235" value="双总线结构" style="text;strokeColor=none;align=center;fillColor=none;html=1;verticalAlign=middle;whiteSpace=wrap;rounded=0;strokeWidth=3;fontSize=14;fontStyle=1" parent="1" vertex="1">
                    <mxGeometry x="760" y="480" width="140" height="30" as="geometry"/>
                </mxCell>
                <mxCell id="NFMgAaU_2-pYfXDWPUxV-236" value="" style="endArrow=block;startArrow=block;endFill=1;startFill=1;html=1;rounded=1;strokeWidth=4;fontSize=14;fontStyle=1;fillColor=#0050ef;strokeColor=#001DBC;" parent="1" edge="1">
                    <mxGeometry width="160" relative="1" as="geometry">
                        <mxPoint x="1120" y="530" as="sourcePoint"/>
                        <mxPoint x="1600" y="530" as="targetPoint"/>
                    </mxGeometry>
                </mxCell>
                <mxCell id="NFMgAaU_2-pYfXDWPUxV-237" style="edgeStyle=orthogonalEdgeStyle;rounded=0;orthogonalLoop=1;jettySize=auto;html=1;exitX=0.5;exitY=0;exitDx=0;exitDy=0;startArrow=classic;startFill=1;strokeWidth=3;fontSize=14;fontStyle=1" parent="1" source="NFMgAaU_2-pYfXDWPUxV-238" edge="1">
                    <mxGeometry relative="1" as="geometry">
                        <mxPoint x="1165" y="530" as="targetPoint"/>
                    </mxGeometry>
                </mxCell>
                <mxCell id="NFMgAaU_2-pYfXDWPUxV-238" value="CPU" style="rounded=0;whiteSpace=wrap;html=1;strokeWidth=3;fontSize=14;fontStyle=1" parent="1" vertex="1">
                    <mxGeometry x="1140" y="590" width="50" height="90" as="geometry"/>
                </mxCell>
                <mxCell id="NFMgAaU_2-pYfXDWPUxV-239" style="edgeStyle=orthogonalEdgeStyle;rounded=0;orthogonalLoop=1;jettySize=auto;html=1;exitX=0.5;exitY=0;exitDx=0;exitDy=0;startArrow=classic;startFill=1;strokeWidth=4;fontSize=14;fontStyle=1;entryX=0.5;entryY=1;entryDx=0;entryDy=0;fillColor=#0050ef;strokeColor=#001DBC;" parent="1" source="NFMgAaU_2-pYfXDWPUxV-240" target="NFMgAaU_2-pYfXDWPUxV-238" edge="1">
                    <mxGeometry relative="1" as="geometry">
                        <mxPoint x="1165" y="690" as="targetPoint"/>
                    </mxGeometry>
                </mxCell>
                <mxCell id="NFMgAaU_2-pYfXDWPUxV-240" value="内存" style="rounded=0;whiteSpace=wrap;html=1;strokeWidth=3;fontSize=14;fontStyle=1" parent="1" vertex="1">
                    <mxGeometry x="1140" y="860" width="50" height="90" as="geometry"/>
                </mxCell>
                <mxCell id="NFMgAaU_2-pYfXDWPUxV-241" style="edgeStyle=orthogonalEdgeStyle;rounded=0;orthogonalLoop=1;jettySize=auto;html=1;exitX=0.5;exitY=0;exitDx=0;exitDy=0;startArrow=classic;startFill=1;strokeWidth=3;fontSize=14;fontStyle=1" parent="1" edge="1">
                    <mxGeometry relative="1" as="geometry">
                        <mxPoint x="1455" y="530" as="targetPoint"/>
                        <mxPoint x="1455" y="860" as="sourcePoint"/>
                    </mxGeometry>
                </mxCell>
                <mxCell id="NFMgAaU_2-pYfXDWPUxV-261" style="edgeStyle=orthogonalEdgeStyle;rounded=0;orthogonalLoop=1;jettySize=auto;html=1;exitX=0;exitY=0.5;exitDx=0;exitDy=0;entryX=1;entryY=0.5;entryDx=0;entryDy=0;fillColor=#0050ef;strokeColor=#001DBC;strokeWidth=4;startArrow=classic;startFill=1;" parent="1" target="NFMgAaU_2-pYfXDWPUxV-240" edge="1">
                    <mxGeometry relative="1" as="geometry">
                        <mxPoint x="1430" y="905" as="sourcePoint"/>
                    </mxGeometry>
                </mxCell>
                <mxCell id="NFMgAaU_2-pYfXDWPUxV-243" style="edgeStyle=orthogonalEdgeStyle;rounded=0;orthogonalLoop=1;jettySize=auto;html=1;exitX=0.5;exitY=0;exitDx=0;exitDy=0;startArrow=classic;startFill=1;strokeWidth=3;fontSize=14;fontStyle=1" parent="1" edge="1">
                    <mxGeometry relative="1" as="geometry">
                        <mxPoint x="1585" y="530" as="targetPoint"/>
                        <mxPoint x="1585" y="860" as="sourcePoint"/>
                    </mxGeometry>
                </mxCell>
                <mxCell id="NFMgAaU_2-pYfXDWPUxV-249" value="三总线结构" style="text;strokeColor=none;align=center;fillColor=none;html=1;verticalAlign=middle;whiteSpace=wrap;rounded=0;strokeWidth=3;fontSize=14;fontStyle=1" parent="1" vertex="1">
                    <mxGeometry x="1320" y="480" width="140" height="30" as="geometry"/>
                </mxCell>
                <mxCell id="NFMgAaU_2-pYfXDWPUxV-250" value="" style="endArrow=block;startArrow=block;endFill=1;startFill=1;html=1;rounded=1;strokeWidth=4;fontSize=14;fontStyle=1;fillColor=#0050ef;strokeColor=#001DBC;" parent="1" edge="1">
                    <mxGeometry width="160" relative="1" as="geometry">
                        <mxPoint x="680" y="760" as="sourcePoint"/>
                        <mxPoint x="1000" y="760" as="targetPoint"/>
                    </mxGeometry>
                </mxCell>
                <mxCell id="NFMgAaU_2-pYfXDWPUxV-255" style="edgeStyle=orthogonalEdgeStyle;rounded=0;orthogonalLoop=1;jettySize=auto;html=1;exitX=0.5;exitY=0;exitDx=0;exitDy=0;startArrow=classic;startFill=1;strokeWidth=3;" parent="1" source="NFMgAaU_2-pYfXDWPUxV-256" edge="1">
                    <mxGeometry relative="1" as="geometry">
                        <mxPoint x="955" y="760" as="targetPoint"/>
                    </mxGeometry>
                </mxCell>
                <mxCell id="NFMgAaU_2-pYfXDWPUxV-256" value="设备控制器" style="rounded=0;whiteSpace=wrap;html=1;strokeWidth=3;fontSize=14;fontStyle=1;fillColor=#f0a30a;fontColor=#000000;strokeColor=#BD7000;" parent="1" vertex="1">
                    <mxGeometry x="930" y="810" width="50" height="90" as="geometry"/>
                </mxCell>
                <mxCell id="NFMgAaU_2-pYfXDWPUxV-259" style="edgeStyle=orthogonalEdgeStyle;rounded=0;orthogonalLoop=1;jettySize=auto;html=1;exitX=0.5;exitY=0;exitDx=0;exitDy=0;startArrow=classic;startFill=1;strokeWidth=3;" parent="1" source="NFMgAaU_2-pYfXDWPUxV-260" edge="1">
                    <mxGeometry relative="1" as="geometry">
                        <mxPoint x="735" y="760" as="targetPoint"/>
                    </mxGeometry>
                </mxCell>
                <mxCell id="NFMgAaU_2-pYfXDWPUxV-260" value="设备控制器" style="rounded=0;whiteSpace=wrap;html=1;strokeWidth=3;fontSize=14;fontStyle=1;fillColor=#f0a30a;fontColor=#000000;strokeColor=#BD7000;" parent="1" vertex="1">
                    <mxGeometry x="710" y="810" width="50" height="90" as="geometry"/>
                </mxCell>
                <mxCell id="NFMgAaU_2-pYfXDWPUxV-262" value="DMA总线" style="text;strokeColor=none;align=center;fillColor=none;html=1;verticalAlign=middle;whiteSpace=wrap;rounded=0;strokeWidth=3;fontSize=14;fontStyle=1" parent="1" vertex="1">
                    <mxGeometry x="1270" y="880" width="100" height="30" as="geometry"/>
                </mxCell>
                <mxCell id="NFMgAaU_2-pYfXDWPUxV-265" value="CPU-主存总线" style="text;strokeColor=none;align=center;fillColor=none;html=1;verticalAlign=middle;whiteSpace=wrap;rounded=0;strokeWidth=3;fontSize=14;fontStyle=1" parent="1" vertex="1">
                    <mxGeometry x="1170" y="720" width="40" height="100" as="geometry"/>
                </mxCell>
                <mxCell id="NFMgAaU_2-pYfXDWPUxV-266" value="IO总线" style="text;strokeColor=none;align=center;fillColor=none;html=1;verticalAlign=middle;whiteSpace=wrap;rounded=0;strokeWidth=3;fontSize=14;fontStyle=1" parent="1" vertex="1">
                    <mxGeometry x="1280" y="540" width="100" height="30" as="geometry"/>
                </mxCell>
                <mxCell id="NFMgAaU_2-pYfXDWPUxV-267" value="主存总线" style="text;strokeColor=none;align=center;fillColor=none;html=1;verticalAlign=middle;whiteSpace=wrap;rounded=0;strokeWidth=3;fontSize=14;fontStyle=1" parent="1" vertex="1">
                    <mxGeometry x="870" y="530" width="100" height="30" as="geometry"/>
                </mxCell>
                <mxCell id="NFMgAaU_2-pYfXDWPUxV-268" value="IO总线" style="text;strokeColor=none;align=center;fillColor=none;html=1;verticalAlign=middle;whiteSpace=wrap;rounded=0;strokeWidth=3;fontSize=14;fontStyle=1" parent="1" vertex="1">
                    <mxGeometry x="860" y="730" width="100" height="30" as="geometry"/>
                </mxCell>
                <mxCell id="NFMgAaU_2-pYfXDWPUxV-269" value="单总线/系统总线" style="text;strokeColor=none;align=center;fillColor=none;html=1;verticalAlign=middle;whiteSpace=wrap;rounded=0;strokeWidth=3;fontSize=14;fontStyle=1" parent="1" vertex="1">
                    <mxGeometry x="150" y="540" width="120" height="30" as="geometry"/>
                </mxCell>
                <mxCell id="NFMgAaU_2-pYfXDWPUxV-270" value="&lt;font color=&quot;#ff33ff&quot; style=&quot;font-size: 15px;&quot;&gt;&lt;b style=&quot;&quot;&gt;由此处可以看出，一个通道管理多个IO接口，一个IO接口管理多个物理设备&lt;/b&gt;&lt;/font&gt;" style="whiteSpace=wrap;html=1;shape=mxgraph.basic.oval_callout" parent="1" vertex="1">
                    <mxGeometry x="860" y="600" width="170" height="120" as="geometry"/>
                </mxCell>
                <mxCell id="NFMgAaU_2-pYfXDWPUxV-273" style="edgeStyle=orthogonalEdgeStyle;rounded=0;orthogonalLoop=1;jettySize=auto;html=1;exitX=0.5;exitY=0;exitDx=0;exitDy=0;entryX=0.5;entryY=1;entryDx=0;entryDy=0;strokeWidth=3;startArrow=classic;startFill=1;" parent="1" source="NFMgAaU_2-pYfXDWPUxV-271" target="NFMgAaU_2-pYfXDWPUxV-214" edge="1">
                    <mxGeometry relative="1" as="geometry"/>
                </mxCell>
                <mxCell id="NFMgAaU_2-pYfXDWPUxV-271" value="打印机" style="rounded=0;whiteSpace=wrap;html=1;strokeWidth=3;fontSize=14;fontStyle=1" parent="1" vertex="1">
                    <mxGeometry x="290" y="760" width="50" height="90" as="geometry"/>
                </mxCell>
                <mxCell id="NFMgAaU_2-pYfXDWPUxV-274" style="edgeStyle=orthogonalEdgeStyle;rounded=0;orthogonalLoop=1;jettySize=auto;html=1;exitX=0.5;exitY=0;exitDx=0;exitDy=0;entryX=0.5;entryY=1;entryDx=0;entryDy=0;startArrow=classic;startFill=1;strokeWidth=3;fontSize=14;fontStyle=1" parent="1" source="NFMgAaU_2-pYfXDWPUxV-275" edge="1">
                    <mxGeometry relative="1" as="geometry">
                        <mxPoint x="415" y="680" as="targetPoint"/>
                    </mxGeometry>
                </mxCell>
                <mxCell id="NFMgAaU_2-pYfXDWPUxV-275" value="磁盘" style="rounded=0;whiteSpace=wrap;html=1;strokeWidth=3;fontSize=14;fontStyle=1" parent="1" vertex="1">
                    <mxGeometry x="350" y="760" width="50" height="90" as="geometry"/>
                </mxCell>
                <mxCell id="NFMgAaU_2-pYfXDWPUxV-276" style="edgeStyle=orthogonalEdgeStyle;rounded=0;orthogonalLoop=1;jettySize=auto;html=1;exitX=0.5;exitY=0;exitDx=0;exitDy=0;entryX=0.5;entryY=1;entryDx=0;entryDy=0;strokeWidth=3;startArrow=classic;startFill=1;" parent="1" source="NFMgAaU_2-pYfXDWPUxV-277" edge="1">
                    <mxGeometry relative="1" as="geometry">
                        <mxPoint x="415" y="680" as="targetPoint"/>
                    </mxGeometry>
                </mxCell>
                <mxCell id="NFMgAaU_2-pYfXDWPUxV-277" value="打印机" style="rounded=0;whiteSpace=wrap;html=1;strokeWidth=3;fontSize=14;fontStyle=1" parent="1" vertex="1">
                    <mxGeometry x="430" y="760" width="50" height="90" as="geometry"/>
                </mxCell>
                <mxCell id="NFMgAaU_2-pYfXDWPUxV-278" style="edgeStyle=orthogonalEdgeStyle;rounded=0;orthogonalLoop=1;jettySize=auto;html=1;exitX=0.5;exitY=0;exitDx=0;exitDy=0;entryX=0.5;entryY=1;entryDx=0;entryDy=0;startArrow=classic;startFill=1;strokeWidth=3;fontSize=14;fontStyle=1" parent="1" source="NFMgAaU_2-pYfXDWPUxV-279" edge="1">
                    <mxGeometry relative="1" as="geometry">
                        <mxPoint x="735" y="900" as="targetPoint"/>
                    </mxGeometry>
                </mxCell>
                <mxCell id="NFMgAaU_2-pYfXDWPUxV-279" value="磁盘" style="rounded=0;whiteSpace=wrap;html=1;strokeWidth=3;fontSize=14;fontStyle=1;fillColor=#d80073;fontColor=#ffffff;strokeColor=#A50040;" parent="1" vertex="1">
                    <mxGeometry x="670" y="980" width="50" height="90" as="geometry"/>
                </mxCell>
                <mxCell id="NFMgAaU_2-pYfXDWPUxV-280" style="edgeStyle=orthogonalEdgeStyle;rounded=0;orthogonalLoop=1;jettySize=auto;html=1;exitX=0.5;exitY=0;exitDx=0;exitDy=0;entryX=0.5;entryY=1;entryDx=0;entryDy=0;strokeWidth=3;startArrow=classic;startFill=1;" parent="1" source="NFMgAaU_2-pYfXDWPUxV-281" edge="1">
                    <mxGeometry relative="1" as="geometry">
                        <mxPoint x="735" y="900" as="targetPoint"/>
                    </mxGeometry>
                </mxCell>
                <mxCell id="NFMgAaU_2-pYfXDWPUxV-281" value="打印机" style="rounded=0;whiteSpace=wrap;html=1;strokeWidth=3;fontSize=14;fontStyle=1;fillColor=#d80073;fontColor=#ffffff;strokeColor=#A50040;" parent="1" vertex="1">
                    <mxGeometry x="750" y="980" width="50" height="90" as="geometry"/>
                </mxCell>
                <mxCell id="NFMgAaU_2-pYfXDWPUxV-282" style="edgeStyle=orthogonalEdgeStyle;rounded=0;orthogonalLoop=1;jettySize=auto;html=1;exitX=0.5;exitY=0;exitDx=0;exitDy=0;entryX=0.5;entryY=1;entryDx=0;entryDy=0;startArrow=classic;startFill=1;strokeWidth=3;fontSize=14;fontStyle=1" parent="1" source="NFMgAaU_2-pYfXDWPUxV-283" edge="1">
                    <mxGeometry relative="1" as="geometry">
                        <mxPoint x="955" y="900" as="targetPoint"/>
                    </mxGeometry>
                </mxCell>
                <mxCell id="NFMgAaU_2-pYfXDWPUxV-283" value="磁盘" style="rounded=0;whiteSpace=wrap;html=1;strokeWidth=3;fontSize=14;fontStyle=1;fillColor=#d80073;fontColor=#ffffff;strokeColor=#A50040;" parent="1" vertex="1">
                    <mxGeometry x="890" y="980" width="50" height="90" as="geometry"/>
                </mxCell>
                <mxCell id="NFMgAaU_2-pYfXDWPUxV-284" style="edgeStyle=orthogonalEdgeStyle;rounded=0;orthogonalLoop=1;jettySize=auto;html=1;exitX=0.5;exitY=0;exitDx=0;exitDy=0;entryX=0.5;entryY=1;entryDx=0;entryDy=0;strokeWidth=3;startArrow=classic;startFill=1;" parent="1" source="NFMgAaU_2-pYfXDWPUxV-285" edge="1">
                    <mxGeometry relative="1" as="geometry">
                        <mxPoint x="955" y="900" as="targetPoint"/>
                    </mxGeometry>
                </mxCell>
                <mxCell id="NFMgAaU_2-pYfXDWPUxV-285" value="打印机" style="rounded=0;whiteSpace=wrap;html=1;strokeWidth=3;fontSize=14;fontStyle=1;fillColor=#d80073;fontColor=#ffffff;strokeColor=#A50040;" parent="1" vertex="1">
                    <mxGeometry x="970" y="980" width="50" height="90" as="geometry"/>
                </mxCell>
                <mxCell id="NFMgAaU_2-pYfXDWPUxV-286" style="edgeStyle=orthogonalEdgeStyle;rounded=0;orthogonalLoop=1;jettySize=auto;html=1;exitX=0.5;exitY=0;exitDx=0;exitDy=0;entryX=0.5;entryY=1;entryDx=0;entryDy=0;startArrow=classic;startFill=1;strokeWidth=3;fontSize=14;fontStyle=1" parent="1" source="NFMgAaU_2-pYfXDWPUxV-287" edge="1">
                    <mxGeometry relative="1" as="geometry">
                        <mxPoint x="1455" y="950" as="targetPoint"/>
                    </mxGeometry>
                </mxCell>
                <mxCell id="NFMgAaU_2-pYfXDWPUxV-287" value="磁盘" style="rounded=0;whiteSpace=wrap;html=1;strokeWidth=3;fontSize=14;fontStyle=1" parent="1" vertex="1">
                    <mxGeometry x="1390" y="1030" width="50" height="90" as="geometry"/>
                </mxCell>
                <mxCell id="NFMgAaU_2-pYfXDWPUxV-288" style="edgeStyle=orthogonalEdgeStyle;rounded=0;orthogonalLoop=1;jettySize=auto;html=1;exitX=0.5;exitY=0;exitDx=0;exitDy=0;entryX=0.5;entryY=1;entryDx=0;entryDy=0;strokeWidth=3;startArrow=classic;startFill=1;" parent="1" source="NFMgAaU_2-pYfXDWPUxV-289" edge="1">
                    <mxGeometry relative="1" as="geometry">
                        <mxPoint x="1455" y="950" as="targetPoint"/>
                    </mxGeometry>
                </mxCell>
                <mxCell id="NFMgAaU_2-pYfXDWPUxV-289" value="打印机" style="rounded=0;whiteSpace=wrap;html=1;strokeWidth=3;fontSize=14;fontStyle=1" parent="1" vertex="1">
                    <mxGeometry x="1470" y="1030" width="50" height="90" as="geometry"/>
                </mxCell>
                <mxCell id="NFMgAaU_2-pYfXDWPUxV-290" style="edgeStyle=orthogonalEdgeStyle;rounded=0;orthogonalLoop=1;jettySize=auto;html=1;exitX=0.5;exitY=0;exitDx=0;exitDy=0;entryX=0.5;entryY=1;entryDx=0;entryDy=0;startArrow=classic;startFill=1;strokeWidth=3;fontSize=14;fontStyle=1" parent="1" source="NFMgAaU_2-pYfXDWPUxV-291" edge="1">
                    <mxGeometry relative="1" as="geometry">
                        <mxPoint x="1595" y="950" as="targetPoint"/>
                    </mxGeometry>
                </mxCell>
                <mxCell id="NFMgAaU_2-pYfXDWPUxV-291" value="磁盘" style="rounded=0;whiteSpace=wrap;html=1;strokeWidth=3;fontSize=14;fontStyle=1" parent="1" vertex="1">
                    <mxGeometry x="1530" y="1030" width="50" height="90" as="geometry"/>
                </mxCell>
                <mxCell id="NFMgAaU_2-pYfXDWPUxV-292" style="edgeStyle=orthogonalEdgeStyle;rounded=0;orthogonalLoop=1;jettySize=auto;html=1;exitX=0.5;exitY=0;exitDx=0;exitDy=0;entryX=0.5;entryY=1;entryDx=0;entryDy=0;strokeWidth=3;startArrow=classic;startFill=1;" parent="1" source="NFMgAaU_2-pYfXDWPUxV-293" edge="1">
                    <mxGeometry relative="1" as="geometry">
                        <mxPoint x="1595" y="950" as="targetPoint"/>
                    </mxGeometry>
                </mxCell>
                <mxCell id="NFMgAaU_2-pYfXDWPUxV-293" value="打印机" style="rounded=0;whiteSpace=wrap;html=1;strokeWidth=3;fontSize=14;fontStyle=1" parent="1" vertex="1">
                    <mxGeometry x="1610" y="1030" width="50" height="90" as="geometry"/>
                </mxCell>
                <mxCell id="opMkr3mFIWgd-m1MfIcS-1" value="DMA控制器" style="rounded=0;whiteSpace=wrap;html=1;" parent="1" vertex="1">
                    <mxGeometry x="1430" y="860" width="190" height="90" as="geometry"/>
                </mxCell>
                <mxCell id="opMkr3mFIWgd-m1MfIcS-2" value="接口" style="rounded=0;whiteSpace=wrap;html=1;" parent="1" vertex="1">
                    <mxGeometry x="1440" y="920" width="30" height="25" as="geometry"/>
                </mxCell>
                <mxCell id="opMkr3mFIWgd-m1MfIcS-3" value="接口" style="rounded=0;whiteSpace=wrap;html=1;" parent="1" vertex="1">
                    <mxGeometry x="1580" y="920" width="30" height="25" as="geometry"/>
                </mxCell>
                <mxCell id="opMkr3mFIWgd-m1MfIcS-4" value="" style="rounded=0;whiteSpace=wrap;html=1;" parent="1" vertex="1">
                    <mxGeometry x="1460" y="870" width="130" height="25" as="geometry"/>
                </mxCell>
                <mxCell id="opMkr3mFIWgd-m1MfIcS-5" value="" style="rounded=0;whiteSpace=wrap;html=1;" parent="1" vertex="1">
                    <mxGeometry x="1470" y="872.5" width="20" height="20" as="geometry"/>
                </mxCell>
                <mxCell id="opMkr3mFIWgd-m1MfIcS-7" value="" style="rounded=0;whiteSpace=wrap;html=1;" parent="1" vertex="1">
                    <mxGeometry x="1500" y="872.5" width="20" height="20" as="geometry"/>
                </mxCell>
                <mxCell id="opMkr3mFIWgd-m1MfIcS-8" value="" style="rounded=0;whiteSpace=wrap;html=1;" parent="1" vertex="1">
                    <mxGeometry x="1530" y="872.5" width="20" height="20" as="geometry"/>
                </mxCell>
                <mxCell id="opMkr3mFIWgd-m1MfIcS-9" value="" style="rounded=0;whiteSpace=wrap;html=1;" parent="1" vertex="1">
                    <mxGeometry x="1560" y="872.5" width="20" height="20" as="geometry"/>
                </mxCell>
                <mxCell id="opMkr3mFIWgd-m1MfIcS-10" value="" style="rounded=0;whiteSpace=wrap;html=1;" parent="1" vertex="1">
                    <mxGeometry x="750" y="1430" width="945" height="530" as="geometry"/>
                </mxCell>
                <mxCell id="opMkr3mFIWgd-m1MfIcS-18" style="edgeStyle=orthogonalEdgeStyle;rounded=0;orthogonalLoop=1;jettySize=auto;html=1;exitX=0;exitY=0.5;exitDx=0;exitDy=0;entryX=1;entryY=0.5;entryDx=0;entryDy=0;" parent="1" source="opMkr3mFIWgd-m1MfIcS-11" target="opMkr3mFIWgd-m1MfIcS-13" edge="1">
                    <mxGeometry relative="1" as="geometry"/>
                </mxCell>
                <mxCell id="opMkr3mFIWgd-m1MfIcS-11" value="&lt;font style=&quot;font-size: 14px;&quot;&gt;&lt;b&gt;磁盘&lt;/b&gt;&lt;/font&gt;" style="rounded=0;whiteSpace=wrap;html=1;" parent="1" vertex="1">
                    <mxGeometry x="1770" y="1490" width="110" height="40" as="geometry"/>
                </mxCell>
                <mxCell id="opMkr3mFIWgd-m1MfIcS-20" style="edgeStyle=orthogonalEdgeStyle;rounded=0;orthogonalLoop=1;jettySize=auto;html=1;exitX=0;exitY=0.5;exitDx=0;exitDy=0;entryX=1;entryY=0.5;entryDx=0;entryDy=0;" parent="1" source="opMkr3mFIWgd-m1MfIcS-12" target="opMkr3mFIWgd-m1MfIcS-19" edge="1">
                    <mxGeometry relative="1" as="geometry"/>
                </mxCell>
                <mxCell id="opMkr3mFIWgd-m1MfIcS-12" value="&lt;span style=&quot;font-size: 14px;&quot;&gt;&lt;b&gt;光盘&lt;/b&gt;&lt;/span&gt;" style="rounded=0;whiteSpace=wrap;html=1;" parent="1" vertex="1">
                    <mxGeometry x="1770" y="1600" width="110" height="40" as="geometry"/>
                </mxCell>
                <mxCell id="opMkr3mFIWgd-m1MfIcS-33" style="edgeStyle=orthogonalEdgeStyle;rounded=0;orthogonalLoop=1;jettySize=auto;html=1;exitX=0;exitY=0.5;exitDx=0;exitDy=0;startArrow=classic;startFill=1;strokeWidth=3;" parent="1" source="opMkr3mFIWgd-m1MfIcS-13" edge="1">
                    <mxGeometry relative="1" as="geometry">
                        <mxPoint x="1290" y="1510" as="targetPoint"/>
                    </mxGeometry>
                </mxCell>
                <mxCell id="opMkr3mFIWgd-m1MfIcS-13" value="&lt;font size=&quot;1&quot; style=&quot;&quot;&gt;&lt;b style=&quot;font-size: 17px;&quot;&gt;DMA接口&lt;/b&gt;&lt;/font&gt;" style="rounded=0;whiteSpace=wrap;html=1;fillColor=#dae8fc;strokeColor=#6c8ebf;" parent="1" vertex="1">
                    <mxGeometry x="1390" y="1470" width="250" height="80" as="geometry"/>
                </mxCell>
                <mxCell id="opMkr3mFIWgd-m1MfIcS-19" value="&lt;font size=&quot;1&quot; style=&quot;&quot;&gt;&lt;b style=&quot;font-size: 17px;&quot;&gt;DMA接口&lt;/b&gt;&lt;/font&gt;" style="rounded=0;whiteSpace=wrap;html=1;fillColor=#dae8fc;strokeColor=#6c8ebf;" parent="1" vertex="1">
                    <mxGeometry x="1390" y="1580" width="250" height="80" as="geometry"/>
                </mxCell>
                <mxCell id="opMkr3mFIWgd-m1MfIcS-41" style="edgeStyle=orthogonalEdgeStyle;rounded=0;orthogonalLoop=1;jettySize=auto;html=1;exitX=1;exitY=0.25;exitDx=0;exitDy=0;" parent="1" source="opMkr3mFIWgd-m1MfIcS-21" edge="1">
                    <mxGeometry relative="1" as="geometry">
                        <mxPoint x="1290" y="1610" as="targetPoint"/>
                    </mxGeometry>
                </mxCell>
                <mxCell id="opMkr3mFIWgd-m1MfIcS-43" value="回应DMA操作 DACK" style="edgeLabel;html=1;align=center;verticalAlign=middle;resizable=0;points=[];fontSize=13;fontStyle=1" parent="opMkr3mFIWgd-m1MfIcS-41" vertex="1" connectable="0">
                    <mxGeometry x="-0.1194" y="-1" relative="1" as="geometry">
                        <mxPoint as="offset"/>
                    </mxGeometry>
                </mxCell>
                <mxCell id="opMkr3mFIWgd-m1MfIcS-42" style="edgeStyle=orthogonalEdgeStyle;rounded=0;orthogonalLoop=1;jettySize=auto;html=1;exitX=1;exitY=0.5;exitDx=0;exitDy=0;startArrow=classic;startFill=1;endArrow=none;endFill=0;" parent="1" source="opMkr3mFIWgd-m1MfIcS-21" edge="1">
                    <mxGeometry relative="1" as="geometry">
                        <mxPoint x="1290" y="1695" as="targetPoint"/>
                    </mxGeometry>
                </mxCell>
                <mxCell id="opMkr3mFIWgd-m1MfIcS-44" value="请求DMA操作 DRQ" style="edgeLabel;html=1;align=center;verticalAlign=middle;resizable=0;points=[];fontSize=14;fontStyle=1" parent="opMkr3mFIWgd-m1MfIcS-42" vertex="1" connectable="0">
                    <mxGeometry x="-0.0855" y="-1" relative="1" as="geometry">
                        <mxPoint as="offset"/>
                    </mxGeometry>
                </mxCell>
                <mxCell id="opMkr3mFIWgd-m1MfIcS-21" value="" style="whiteSpace=wrap;html=1;aspect=fixed;fillColor=#f5f5f5;strokeColor=#666666;fontColor=#333333;" parent="1" vertex="1">
                    <mxGeometry x="790" y="1520" width="350" height="350" as="geometry"/>
                </mxCell>
                <mxCell id="opMkr3mFIWgd-m1MfIcS-15" value="&lt;font style=&quot;font-size: 15px;&quot;&gt;&lt;b style=&quot;font-size: 15px;&quot;&gt;地址寄存器MAR&lt;/b&gt;&lt;/font&gt;" style="rounded=0;whiteSpace=wrap;html=1;fontSize=15;fillColor=#f8cecc;strokeColor=#b85450;" parent="1" vertex="1">
                    <mxGeometry x="810" y="1550" width="130" height="50" as="geometry"/>
                </mxCell>
                <mxCell id="opMkr3mFIWgd-m1MfIcS-14" value="&lt;font style=&quot;font-size: 15px;&quot;&gt;&lt;b style=&quot;font-size: 15px;&quot;&gt;数据计数器DC&lt;/b&gt;&lt;/font&gt;" style="rounded=0;whiteSpace=wrap;html=1;fontSize=15;fillColor=#f8cecc;strokeColor=#b85450;" parent="1" vertex="1">
                    <mxGeometry x="810" y="1620" width="130" height="50" as="geometry"/>
                </mxCell>
                <mxCell id="opMkr3mFIWgd-m1MfIcS-16" value="&lt;font style=&quot;font-size: 15px;&quot;&gt;&lt;b style=&quot;font-size: 15px;&quot;&gt;数据缓冲区&lt;/b&gt;&lt;/font&gt;" style="rounded=0;whiteSpace=wrap;html=1;fontSize=15;fillColor=#f8cecc;strokeColor=#b85450;" parent="1" vertex="1">
                    <mxGeometry x="810" y="1690" width="130" height="50" as="geometry"/>
                </mxCell>
                <mxCell id="opMkr3mFIWgd-m1MfIcS-17" value="&lt;font style=&quot;font-size: 15px;&quot;&gt;&lt;b style=&quot;font-size: 15px;&quot;&gt;命令状态控制器&lt;/b&gt;&lt;/font&gt;" style="rounded=0;whiteSpace=wrap;html=1;fontSize=15;fillColor=#f8cecc;strokeColor=#b85450;" parent="1" vertex="1">
                    <mxGeometry x="810" y="1760" width="130" height="50" as="geometry"/>
                </mxCell>
                <mxCell id="opMkr3mFIWgd-m1MfIcS-22" value="&lt;font style=&quot;font-size: 22px;&quot;&gt;IO逻辑&lt;/font&gt;" style="whiteSpace=wrap;html=1;aspect=fixed;fillColor=#d5e8d4;strokeColor=#82b366;" parent="1" vertex="1">
                    <mxGeometry x="970" y="1600" width="160" height="160" as="geometry"/>
                </mxCell>
                <mxCell id="opMkr3mFIWgd-m1MfIcS-23" value="&lt;font size=&quot;1&quot; style=&quot;&quot;&gt;&lt;b style=&quot;font-size: 17px;&quot;&gt;DMA接口&lt;/b&gt;&lt;/font&gt;" style="rounded=0;whiteSpace=wrap;html=1;fillColor=#dae8fc;strokeColor=#6c8ebf;" parent="1" vertex="1">
                    <mxGeometry x="1390" y="1695" width="250" height="80" as="geometry"/>
                </mxCell>
                <mxCell id="opMkr3mFIWgd-m1MfIcS-24" value="&lt;font style=&quot;&quot; size=&quot;1&quot;&gt;&lt;b style=&quot;font-size: 17px;&quot;&gt;DMA接口&lt;/b&gt;&lt;/font&gt;" style="rounded=0;whiteSpace=wrap;html=1;fillColor=#dae8fc;strokeColor=#6c8ebf;" parent="1" vertex="1">
                    <mxGeometry x="1390" y="1810" width="250" height="80" as="geometry"/>
                </mxCell>
                <mxCell id="opMkr3mFIWgd-m1MfIcS-25" style="edgeStyle=orthogonalEdgeStyle;rounded=0;orthogonalLoop=1;jettySize=auto;html=1;exitX=0;exitY=0.5;exitDx=0;exitDy=0;entryX=1;entryY=0.5;entryDx=0;entryDy=0;" parent="1" source="opMkr3mFIWgd-m1MfIcS-26" edge="1">
                    <mxGeometry relative="1" as="geometry">
                        <mxPoint x="1640" y="1735" as="targetPoint"/>
                    </mxGeometry>
                </mxCell>
                <mxCell id="opMkr3mFIWgd-m1MfIcS-26" value="&lt;span style=&quot;font-size: 14px;&quot;&gt;&lt;b&gt;磁盘&lt;/b&gt;&lt;/span&gt;" style="rounded=0;whiteSpace=wrap;html=1;" parent="1" vertex="1">
                    <mxGeometry x="1770" y="1715" width="110" height="40" as="geometry"/>
                </mxCell>
                <mxCell id="opMkr3mFIWgd-m1MfIcS-27" style="edgeStyle=orthogonalEdgeStyle;rounded=0;orthogonalLoop=1;jettySize=auto;html=1;exitX=0;exitY=0.5;exitDx=0;exitDy=0;entryX=1;entryY=0.5;entryDx=0;entryDy=0;" parent="1" source="opMkr3mFIWgd-m1MfIcS-28" edge="1">
                    <mxGeometry relative="1" as="geometry">
                        <mxPoint x="1640" y="1850" as="targetPoint"/>
                    </mxGeometry>
                </mxCell>
                <mxCell id="opMkr3mFIWgd-m1MfIcS-28" value="&lt;span style=&quot;font-size: 14px;&quot;&gt;&lt;b&gt;光盘&lt;/b&gt;&lt;/span&gt;" style="rounded=0;whiteSpace=wrap;html=1;" parent="1" vertex="1">
                    <mxGeometry x="1770" y="1830" width="110" height="40" as="geometry"/>
                </mxCell>
                <mxCell id="opMkr3mFIWgd-m1MfIcS-31" value="" style="shape=flexArrow;endArrow=classic;startArrow=classic;html=1;rounded=0;entryX=0.571;entryY=0.132;entryDx=0;entryDy=0;entryPerimeter=0;" parent="1" edge="1">
                    <mxGeometry width="100" height="100" relative="1" as="geometry">
                        <mxPoint x="1290" y="2010.7999267578125" as="sourcePoint"/>
                        <mxPoint x="1289.5949999999998" y="1480" as="targetPoint"/>
                    </mxGeometry>
                </mxCell>
                <mxCell id="opMkr3mFIWgd-m1MfIcS-34" style="edgeStyle=orthogonalEdgeStyle;rounded=0;orthogonalLoop=1;jettySize=auto;html=1;exitX=0;exitY=0.5;exitDx=0;exitDy=0;startArrow=classic;startFill=1;strokeWidth=3;" parent="1" edge="1">
                    <mxGeometry relative="1" as="geometry">
                        <mxPoint x="1290" y="1618.95" as="targetPoint"/>
                        <mxPoint x="1390" y="1618.95" as="sourcePoint"/>
                    </mxGeometry>
                </mxCell>
                <mxCell id="opMkr3mFIWgd-m1MfIcS-35" style="edgeStyle=orthogonalEdgeStyle;rounded=0;orthogonalLoop=1;jettySize=auto;html=1;exitX=0;exitY=0.5;exitDx=0;exitDy=0;startArrow=classic;startFill=1;strokeWidth=3;" parent="1" edge="1">
                    <mxGeometry relative="1" as="geometry">
                        <mxPoint x="1290" y="1730" as="targetPoint"/>
                        <mxPoint x="1390" y="1730" as="sourcePoint"/>
                    </mxGeometry>
                </mxCell>
                <mxCell id="opMkr3mFIWgd-m1MfIcS-36" style="edgeStyle=orthogonalEdgeStyle;rounded=0;orthogonalLoop=1;jettySize=auto;html=1;exitX=0;exitY=0.5;exitDx=0;exitDy=0;startArrow=classic;startFill=1;strokeWidth=3;" parent="1" edge="1">
                    <mxGeometry relative="1" as="geometry">
                        <mxPoint x="1290" y="1830" as="targetPoint"/>
                        <mxPoint x="1390" y="1830" as="sourcePoint"/>
                    </mxGeometry>
                </mxCell>
                <mxCell id="opMkr3mFIWgd-m1MfIcS-37" style="edgeStyle=orthogonalEdgeStyle;rounded=0;orthogonalLoop=1;jettySize=auto;html=1;startArrow=classic;startFill=1;strokeWidth=3;" parent="1" edge="1">
                    <mxGeometry relative="1" as="geometry">
                        <mxPoint x="1140" y="1670" as="targetPoint"/>
                        <mxPoint x="1290" y="1670" as="sourcePoint"/>
                    </mxGeometry>
                </mxCell>
                <mxCell id="opMkr3mFIWgd-m1MfIcS-45" value="数据传输" style="edgeLabel;html=1;align=center;verticalAlign=middle;resizable=0;points=[];fontSize=13;fontStyle=1" parent="opMkr3mFIWgd-m1MfIcS-37" vertex="1" connectable="0">
                    <mxGeometry x="-0.0566" y="-1" relative="1" as="geometry">
                        <mxPoint as="offset"/>
                    </mxGeometry>
                </mxCell>
                <mxCell id="opMkr3mFIWgd-m1MfIcS-38" value="&lt;font style=&quot;font-size: 15px;&quot;&gt;&lt;b&gt;DMA核心控制区&lt;/b&gt;&lt;/font&gt;" style="text;strokeColor=none;align=center;fillColor=none;html=1;verticalAlign=middle;whiteSpace=wrap;rounded=0;" parent="1" vertex="1">
                    <mxGeometry x="880" y="1890" width="160" height="30" as="geometry"/>
                </mxCell>
                <mxCell id="opMkr3mFIWgd-m1MfIcS-39" value="&lt;font style=&quot;font-size: 15px;&quot;&gt;&lt;b&gt;DMA接口区&lt;/b&gt;&lt;/font&gt;" style="text;strokeColor=none;align=center;fillColor=none;html=1;verticalAlign=middle;whiteSpace=wrap;rounded=0;" parent="1" vertex="1">
                    <mxGeometry x="1380" y="1900" width="160" height="30" as="geometry"/>
                </mxCell>
                <mxCell id="opMkr3mFIWgd-m1MfIcS-40" value="&lt;font style=&quot;font-size: 18px;&quot;&gt;&lt;b&gt;DMA控制器&lt;/b&gt;&lt;/font&gt;" style="text;strokeColor=none;align=center;fillColor=none;html=1;verticalAlign=middle;whiteSpace=wrap;rounded=0;" parent="1" vertex="1">
                    <mxGeometry x="1150" y="1390" width="160" height="30" as="geometry"/>
                </mxCell>
                <mxCell id="opMkr3mFIWgd-m1MfIcS-46" value="" style="shape=flexArrow;endArrow=classic;startArrow=classic;html=1;rounded=0;" parent="1" edge="1">
                    <mxGeometry width="100" height="100" relative="1" as="geometry">
                        <mxPoint x="340" y="2020" as="sourcePoint"/>
                        <mxPoint x="1830" y="2020" as="targetPoint"/>
                    </mxGeometry>
                </mxCell>
                <mxCell id="opMkr3mFIWgd-m1MfIcS-52" style="edgeStyle=orthogonalEdgeStyle;rounded=0;orthogonalLoop=1;jettySize=auto;html=1;exitX=0.5;exitY=1;exitDx=0;exitDy=0;startArrow=classic;startFill=1;strokeWidth=3;" parent="1" source="opMkr3mFIWgd-m1MfIcS-51" edge="1">
                    <mxGeometry relative="1" as="geometry">
                        <mxPoint x="369.88235294117646" y="2020" as="targetPoint"/>
                    </mxGeometry>
                </mxCell>
                <mxCell id="opMkr3mFIWgd-m1MfIcS-51" value="&lt;font style=&quot;font-size: 31px;&quot;&gt;内存&lt;/font&gt;" style="rounded=0;whiteSpace=wrap;html=1;fillColor=#fff2cc;strokeColor=#d6b656;" parent="1" vertex="1">
                    <mxGeometry x="310" y="1530" width="120" height="420" as="geometry"/>
                </mxCell>
                <mxCell id="opMkr3mFIWgd-m1MfIcS-54" style="edgeStyle=orthogonalEdgeStyle;rounded=0;orthogonalLoop=1;jettySize=auto;html=1;exitX=0.5;exitY=1;exitDx=0;exitDy=0;startArrow=classic;startFill=1;strokeWidth=3;" parent="1" source="opMkr3mFIWgd-m1MfIcS-53" edge="1">
                    <mxGeometry relative="1" as="geometry">
                        <mxPoint x="520" y="2020" as="targetPoint"/>
                        <Array as="points">
                            <mxPoint x="520" y="2000"/>
                            <mxPoint x="520" y="2000"/>
                        </Array>
                    </mxGeometry>
                </mxCell>
                <mxCell id="opMkr3mFIWgd-m1MfIcS-55" style="edgeStyle=orthogonalEdgeStyle;rounded=0;orthogonalLoop=1;jettySize=auto;html=1;exitX=1;exitY=0.25;exitDx=0;exitDy=0;entryX=0.004;entryY=0.329;entryDx=0;entryDy=0;entryPerimeter=0;startArrow=classic;startFill=1;endArrow=none;endFill=0;" parent="1" source="opMkr3mFIWgd-m1MfIcS-53" target="opMkr3mFIWgd-m1MfIcS-21" edge="1">
                    <mxGeometry relative="1" as="geometry"/>
                </mxCell>
                <mxCell id="opMkr3mFIWgd-m1MfIcS-58" value="请求接管总线 HRQ" style="edgeLabel;html=1;align=center;verticalAlign=middle;resizable=0;points=[];fontSize=14;fontStyle=1" parent="opMkr3mFIWgd-m1MfIcS-55" vertex="1" connectable="0">
                    <mxGeometry x="-0.0329" relative="1" as="geometry">
                        <mxPoint x="-13" as="offset"/>
                    </mxGeometry>
                </mxCell>
                <mxCell id="opMkr3mFIWgd-m1MfIcS-56" style="edgeStyle=orthogonalEdgeStyle;rounded=0;orthogonalLoop=1;jettySize=auto;html=1;exitX=1;exitY=0.5;exitDx=0;exitDy=0;entryX=-0.002;entryY=0.631;entryDx=0;entryDy=0;entryPerimeter=0;startArrow=classic;startFill=1;endArrow=none;endFill=0;" parent="1" source="opMkr3mFIWgd-m1MfIcS-53" target="opMkr3mFIWgd-m1MfIcS-21" edge="1">
                    <mxGeometry relative="1" as="geometry"/>
                </mxCell>
                <mxCell id="opMkr3mFIWgd-m1MfIcS-59" value="INTR中断信号传输" style="edgeLabel;html=1;align=center;verticalAlign=middle;resizable=0;points=[];fontSize=14;fontStyle=1" parent="opMkr3mFIWgd-m1MfIcS-56" vertex="1" connectable="0">
                    <mxGeometry x="-0.7678" y="1" relative="1" as="geometry">
                        <mxPoint x="50" y="1" as="offset"/>
                    </mxGeometry>
                </mxCell>
                <mxCell id="opMkr3mFIWgd-m1MfIcS-57" style="edgeStyle=orthogonalEdgeStyle;rounded=0;orthogonalLoop=1;jettySize=auto;html=1;exitX=1;exitY=0.75;exitDx=0;exitDy=0;entryX=0;entryY=0.929;entryDx=0;entryDy=0;entryPerimeter=0;" parent="1" source="opMkr3mFIWgd-m1MfIcS-53" target="opMkr3mFIWgd-m1MfIcS-21" edge="1">
                    <mxGeometry relative="1" as="geometry"/>
                </mxCell>
                <mxCell id="opMkr3mFIWgd-m1MfIcS-61" value="HLDA 允许接管总线" style="edgeLabel;html=1;align=center;verticalAlign=middle;resizable=0;points=[];fontSize=14;fontStyle=1" parent="opMkr3mFIWgd-m1MfIcS-57" vertex="1" connectable="0">
                    <mxGeometry x="-0.7395" y="1" relative="1" as="geometry">
                        <mxPoint x="48" as="offset"/>
                    </mxGeometry>
                </mxCell>
                <mxCell id="opMkr3mFIWgd-m1MfIcS-53" value="&lt;font style=&quot;font-size: 31px;&quot;&gt;CPU&lt;/font&gt;" style="rounded=0;whiteSpace=wrap;html=1;fillColor=#cdeb8b;strokeColor=#36393d;" parent="1" vertex="1">
                    <mxGeometry x="460" y="1530" width="120" height="420" as="geometry"/>
                </mxCell>
                <mxCell id="opMkr3mFIWgd-m1MfIcS-63" value="" style="rounded=0;whiteSpace=wrap;html=1;fillColor=#dae8fc;strokeColor=#6c8ebf;" parent="1" vertex="1">
                    <mxGeometry x="1390" y="2072.5" width="250" height="455" as="geometry"/>
                </mxCell>
                <mxCell id="opMkr3mFIWgd-m1MfIcS-64" value="&lt;font size=&quot;1&quot; style=&quot;&quot;&gt;&lt;b style=&quot;font-size: 15px;&quot;&gt;接口控制寄存器&lt;/b&gt;&lt;/font&gt;" style="rounded=0;whiteSpace=wrap;html=1;" parent="1" vertex="1">
                    <mxGeometry x="1420" y="2110" width="190" height="60" as="geometry"/>
                </mxCell>
                <mxCell id="opMkr3mFIWgd-m1MfIcS-65" value="&lt;font size=&quot;1&quot; style=&quot;&quot;&gt;&lt;b style=&quot;font-size: 15px;&quot;&gt;接口中断控制寄存器&lt;/b&gt;&lt;/font&gt;" style="rounded=0;whiteSpace=wrap;html=1;" parent="1" vertex="1">
                    <mxGeometry x="1420" y="2190" width="190" height="60" as="geometry"/>
                </mxCell>
                <mxCell id="opMkr3mFIWgd-m1MfIcS-66" value="&lt;font size=&quot;1&quot; style=&quot;&quot;&gt;&lt;b style=&quot;font-size: 15px;&quot;&gt;数据源地址指针&lt;/b&gt;&lt;/font&gt;" style="rounded=0;whiteSpace=wrap;html=1;" parent="1" vertex="1">
                    <mxGeometry x="1420" y="2270" width="190" height="60" as="geometry"/>
                </mxCell>
                <mxCell id="opMkr3mFIWgd-m1MfIcS-67" value="&lt;span style=&quot;font-size: 15px;&quot;&gt;&lt;b&gt;数据目标地址（主存）&lt;/b&gt;&lt;/span&gt;" style="rounded=0;whiteSpace=wrap;html=1;" parent="1" vertex="1">
                    <mxGeometry x="1420" y="2350" width="190" height="60" as="geometry"/>
                </mxCell>
                <mxCell id="opMkr3mFIWgd-m1MfIcS-68" value="&lt;font size=&quot;1&quot; style=&quot;&quot;&gt;&lt;b style=&quot;font-size: 15px;&quot;&gt;事务计数器&lt;/b&gt;&lt;/font&gt;" style="rounded=0;whiteSpace=wrap;html=1;" parent="1" vertex="1">
                    <mxGeometry x="1420" y="2440" width="190" height="60" as="geometry"/>
                </mxCell>
                <mxCell id="opMkr3mFIWgd-m1MfIcS-69" value="" style="endArrow=classic;html=1;rounded=1;exitX=0.75;exitY=1;exitDx=0;exitDy=0;fillColor=#cdeb8b;strokeColor=#97D077;strokeWidth=4;" parent="1" source="opMkr3mFIWgd-m1MfIcS-24" target="opMkr3mFIWgd-m1MfIcS-63" edge="1">
                    <mxGeometry width="50" height="50" relative="1" as="geometry">
                        <mxPoint x="1770" y="2130" as="sourcePoint"/>
                        <mxPoint x="1820" y="2080" as="targetPoint"/>
                    </mxGeometry>
                </mxCell>
            </root>
        </mxGraphModel>
    </diagram>
</mxfile>